#!OML:ASF F:\VICON\USERDATA\INSTALL\rory3\rory3.ASF
:FULLY-SPECIFIED
:DEGREES
1163
root -10.4597 17.6705 13.5149 152.089 81.8582 153.648
lowerback 11.152 0.460719 -5.06965
upperback 2.42378 0.104901 -0.523087
thorax -3.72018 0.140882 2.29331
lowerneck -7.02354 -5.02034 -12.3613
upperneck 44.5442 -3.35879 5.11622
head 18.3914 -1.82419 4.46109
rclavicle 1.21134e-014 1.40143e-014
rhumerus -35.9762 -20.7129 -73.8455
rradius 30.7829
rwrist 6.69095
rhand -14.2331 7.42138
rfingers 7.12502
rthumb 11.9043 -22.2202
lclavicle 1.21134e-014 1.40143e-014
lhumerus -32.7959 3.60617 81.1112
lradius 42.1867
lwrist -1.18791
lhand -22.2739 29.0757
lfingers 7.12502
lthumb 4.14425 59.0152
rfemur -28.9066 0.105706 13.6791
rtibia 34.6465
rfoot -6.37378 4.53313
rtoes -13.2539
lfemur 6.9116 -6.31508 -29.2499
ltibia 18.5291
lfoot -11.2704 -12.9738
ltoes 7.10846
1164
root -10.5843 17.6858 13.51 150.076 82.3992 151.707
lowerback 11.1684 0.460769 -5.03631
upperback 2.4016 0.106281 -0.497478
thorax -3.75274 0.141678 2.3011
lowerneck -6.82456 -4.95094 -12.6483
upperneck 44.5866 -3.26767 5.27538
head 18.3703 -1.81911 4.60823
rclavicle -1.16972e-014 -6.36111e-015
rhumerus -36.0003 -19.8867 -74.3615
rradius 31.1456
rwrist 7.02907
rhand -14.1071 7.7777
rfingers 7.12502
rthumb 12.0258 -21.8568
lclavicle -1.16972e-014 -6.36111e-015
lhumerus -33.0731 3.92711 80.8757
lradius 42.3816
lwrist -1.37283
lhand -22.015 28.8306
lfingers 7.12502
lthumb 4.39431 58.765
rfemur -29.0275 -0.0127678 13.8529
rtibia 36.006
rfoot -6.6112 4.45488
rtoes -11.5398
lfemur 6.4631 -6.34809 -29.3699
ltibia 18.7212
lfoot -11.0435 -12.515
ltoes 8.63612
1165
root -10.7096 17.7037 13.5046 148.31 82.9243 150.074
lowerback 11.2711 0.452725 -5.05359
upperback 2.37807 0.089172 -0.391097
thorax -3.83288 0.135178 2.42448
lowerneck -6.66859 -4.89866 -12.823
upperneck 44.6239 -3.14418 5.22421
head 18.3434 -1.80807 4.63587
rclavicle 1.61885e-014 3.08116e-015
rhumerus -36.0066 -19.0606 -74.7911
rradius 31.4497
rwrist 7.40658
rhand -13.81 8.1457
rfingers 7.12502
rthumb 12.3123 -21.4718
lclavicle 1.61885e-014 3.08116e-015
lhumerus -33.4193 4.27067 80.6781
lradius 42.594
lwrist -1.65563
lhand -21.7963 28.8845
lfingers 7.12502
lthumb 4.60546 58.8144
rfemur -29.0129 -0.159413 14.1579
rtibia 37.5096
rfoot -7.04614 4.15413
rtoes -12.1826
lfemur 6.07306 -6.17227 -29.3878
ltibia 18.8709
lfoot -11.0551 -12.1165
ltoes 8.02774
1166
root -10.8335 17.7215 13.4965 146.603 83.4125 148.49
lowerback 11.3228 0.57659 -4.87468
upperback 2.40389 0.270651 -0.444303
thorax -3.84813 0.223307 2.2418
lowerneck -6.55069 -5.01212 -12.5107
upperneck 44.6402 -3.34283 5.04425
head 18.3311 -1.85931 4.45802
rclavicle 9.49197e-015 7.05686e-015
rhumerus -36.1592 -18.8748 -75.1734
rradius 31.8325
rwrist 7.78582
rhand -13.4186 8.4403
rfingers 7.12502
rthumb 12.6896 -21.1542
lclavicle 9.49197e-015 7.05686e-015
lhumerus -33.5446 3.88118 80.5183
lradius 42.7749
lwrist -1.55723
lhand -21.4853 28.8753
lfingers 7.12502
lthumb 4.90579 58.7985
rfemur -29.0084 -0.310675 14.4302
rtibia 39.0862
rfoot -7.34555 3.7419
rtoes -12.4726
lfemur 5.68351 -6.34127 -29.4683
ltibia 19.0334
lfoot -11.0295 -11.4029
ltoes 6.94319
1167
root -10.9546 17.7375 13.4866 144.415 83.8378 146.395
lowerback 11.2651 0.654609 -4.67378
upperback 2.47914 0.401918 -0.528808
thorax -3.74586 0.283584 2.0219
lowerneck -6.56588 -5.09651 -12.2867
upperneck 44.6862 -3.50135 4.96412
head 18.3731 -1.89962 4.35398
rclavicle -2.13507e-014 8.69683e-015
rhumerus -36.23 -18.6882 -75.5957
rradius 32.2633
rwrist 8.27206
rhand -13.1538 8.4918
rfingers 7.12502
rthumb 12.9449 -21.0867
lclavicle -2.13507e-014 8.69683e-015
lhumerus -33.6598 3.59974 80.366
lradius 42.9678
lwrist -1.53729
lhand -21.3807 28.8056
lfingers 7.12502
lthumb 5.00676 58.7265
rfemur -29.0365 -0.614538 14.625
rtibia 40.7712
rfoot -7.57129 3.34397
rtoes -12.5804
lfemur 5.31748 -6.59333 -29.596
ltibia 19.1122
lfoot -10.8454 -10.7406
ltoes 6.00973
1168
root -11.0737 17.7565 13.4804 142.97 84.2904 145.089
lowerback 11.2253 0.620438 -4.49867
upperback 2.58277 0.386339 -0.483133
thorax -3.61393 0.270993 1.97389
lowerneck -6.65875 -5.06014 -12.2337
upperneck 44.6999 -3.44878 4.9192
head 18.3947 -1.88167 4.33
rclavicle -4.42917e-015 5.61567e-015
rhumerus -36.1442 -18.2427 -76.0211
rradius 32.6158
rwrist 8.70234
rhand -12.8216 8.467
rfingers 7.12502
rthumb 13.2652 -21.0909
lclavicle -4.42917e-015 5.61567e-015
lhumerus -33.8548 3.64123 80.185
lradius 43.1438
lwrist -1.4931
lhand -21.4388 28.8449
lfingers 7.12502
lthumb 4.95067 58.7671
rfemur -28.9531 -0.831227 14.912
rtibia 42.5001
rfoot -7.64393 2.84405
rtoes -11.4781
lfemur 5.00412 -6.47278 -29.4558
ltibia 19.1395
lfoot -10.5256 -10.693
ltoes 7.10173
1169
root -11.1942 17.7758 13.4787 140.893 84.6782 143.119
lowerback 11.2212 0.632647 -4.43701
upperback 2.63874 0.413689 -0.457418
thorax -3.55488 0.282533 1.96238
lowerneck -6.5811 -5.02577 -12.0694
upperneck 44.5204 -3.46341 4.851
head 18.2477 -1.87199 4.24964
rclavicle 7.39852e-015 -5.26779e-015
rhumerus -36.1267 -17.8185 -76.4002
rradius 32.9304
rwrist 8.92505
rhand -12.5637 8.5699
rfingers 7.12502
rthumb 13.5138 -20.9716
lclavicle 7.39852e-015 -5.26779e-015
lhumerus -34.0851 3.66802 80.0193
lradius 43.2982
lwrist -1.38201
lhand -21.4881 28.9534
lfingers 7.12502
lthumb 4.90303 58.8766
rfemur -28.8652 -0.826393 15.0451
rtibia 44.2861
rfoot -7.73638 2.41842
rtoes -8.19464
lfemur 4.67895 -6.34503 -29.3665
ltibia 19.1406
lfoot -10.2786 -10.6172
ltoes 8.31485
1170
root -11.3153 17.7904 13.4773 138.737 85.0109 141.038
lowerback 11.2601 0.641784 -4.39289
upperback 2.6238 0.428421 -0.427431
thorax -3.59295 0.290037 1.96649
lowerneck -6.496 -5.03164 -12.0188
upperneck 44.4218 -3.52079 4.83707
head 18.166 -1.89195 4.21591
rclavicle -8.12532e-015 -2.06239e-014
rhumerus -36.157 -17.1922 -76.7624
rradius 33.1699
rwrist 8.89079
rhand -12.4767 8.76428
rfingers 7.12502
rthumb 13.5976 -20.7717
lclavicle -8.12532e-015 -2.06239e-014
lhumerus -34.3955 3.84201 79.8644
lradius 43.3907
lwrist -1.39626
lhand -21.5039 29.1308
lfingers 7.12502
lthumb 4.88777 59.0544
rfemur -28.7922 -0.79893 15.1261
rtibia 46.089
rfoot -7.97262 2.15693
rtoes -5.98975
lfemur 4.30144 -6.4216 -29.3821
ltibia 19.2003
lfoot -10.2888 -10.0957
ltoes 7.41041
1171
root -11.4329 17.8006 13.476 136.235 85.3204 138.648
lowerback 11.2906 0.505836 -4.46685
upperback 2.63361 0.244262 -0.24932
thorax -3.58791 0.198881 2.22028
lowerneck -6.55039 -4.89391 -12.4175
upperneck 44.3912 -3.23825 4.85523
head 18.1446 -1.849 4.33891
rclavicle 4.08751e-015 1.65985e-014
rhumerus -36.0217 -15.9621 -77.1359
rradius 33.4068
rwrist 8.68718
rhand -12.6525 8.82867
rfingers 7.12502
rthumb 13.4282 -20.7185
lclavicle 4.08751e-015 1.65985e-014
lhumerus -34.8195 4.53421 79.7948
lradius 43.4247
lwrist -1.45271
lhand -21.8245 29.0865
lfingers 7.12502
lthumb 4.57825 59.017
rfemur -28.6395 -1.02878 15.2284
rtibia 47.8944
rfoot -8.17144 2.07761
rtoes -5.42192
lfemur 3.92412 -6.41829 -29.3943
ltibia 19.3597
lfoot -10.2964 -9.66206
ltoes 6.68366
